<?xml version="1.0" standalone="no"?>
<!DOCTYPE svg PUBLIC "-//W3C//DTD SVG 20010904//EN"
 "http://www.w3.org/TR/2001/REC-SVG-20010904/DTD/svg10.dtd">
<svg version="1.0" xmlns="http://www.w3.org/2000/svg"
 width="512.000000pt" height="512.000000pt" viewBox="0 0 512.000000 512.000000"
 preserveAspectRatio="xMidYMid meet">
<metadata>
Created by potrace 1.11, written by Peter Selinger 2001-2013
</metadata>
<g transform="translate(0.000000,512.000000) scale(0.100000,-0.100000)"
fill="#000000" stroke="none">
<path d="M3122 5060 c-54 -34 -59 -61 -58 -290 2 -177 4 -209 19 -231 33 -49
114 -66 163 -35 54 36 58 53 59 265 1 121 -3 209 -10 231 -23 69 -111 100
-173 60z"/>
<path d="M2010 4603 c-49 -18 -85 -80 -75 -132 5 -29 34 -63 148 -179 146
-148 177 -172 222 -172 55 0 115 52 117 103 2 62 -4 71 -144 214 -79 80 -155
151 -170 159 -27 14 -70 17 -98 7z"/>
<path d="M4255 4592 c-49 -32 -305 -297 -306 -318 -5 -78 12 -115 65 -141 24
-11 45 -14 72 -8 33 6 63 30 187 153 155 154 170 177 156 241 -17 76 -109 115
-174 73z"/>
<path d="M3080 4363 c-158 -20 -294 -67 -425 -147 -145 -88 -274 -227 -367
-395 -15 -28 -19 -29 -50 -20 -18 5 -49 12 -68 15 -19 3 -38 8 -41 10 -17 10
-148 19 -274 18 -150 -2 -281 -23 -418 -68 -434 -144 -776 -502 -901 -943 -45
-158 -55 -235 -51 -418 3 -216 41 -373 135 -571 192 -407 566 -690 1019 -774
102 -19 149 -19 1136 -17 567 2 1039 6 1050 9 11 3 40 9 65 13 64 10 214 62
285 98 432 222 669 706 580 1184 -41 216 -162 442 -317 590 -65 61 -192 154
-237 173 -32 13 -32 13 -24 64 10 64 10 296 -1 354 -55 313 -272 593 -566 733
-58 28 -165 65 -210 73 -19 4 -46 9 -60 11 -32 7 -227 12 -260 8z"/>
<path d="M4369 3463 c-78 -48 -77 -160 1 -207 43 -25 419 -24 470 2 83 41 82
165 -1 208 -43 22 -434 20 -470 -3z"/>
<path d="M2064 944 c-46 -22 -64 -62 -64 -139 0 -84 20 -128 67 -150 63 -30
141 -1 163 59 15 43 12 143 -6 181 -16 35 -65 65 -106 65 -12 0 -37 -7 -54
-16z"/>
<path d="M3004 927 c-37 -34 -39 -38 -42 -110 -5 -93 13 -138 65 -162 51 -25
100 -14 141 30 30 32 32 39 32 106 0 113 -28 154 -114 165 -40 6 -47 3 -82
-29z"/>
<path d="M2550 789 c-44 -17 -64 -57 -68 -135 -3 -52 0 -81 13 -107 37 -78
149 -88 200 -19 28 38 34 156 10 205 -26 56 -93 80 -155 56z"/>
<path d="M2074 470 c-11 -4 -33 -22 -47 -40 -24 -28 -27 -40 -27 -102 0 -86
19 -131 65 -152 57 -27 116 -15 150 32 28 38 34 156 10 205 -25 54 -94 80
-151 57z"/>
<path d="M3040 472 c-61 -27 -80 -64 -80 -154 0 -75 21 -122 65 -142 57 -27
116 -15 150 32 28 38 34 156 10 205 -24 52 -96 81 -145 59z"/>
<path d="M2550 309 c-44 -17 -64 -57 -68 -135 -3 -52 0 -81 13 -107 37 -78
149 -88 200 -19 28 38 34 156 10 205 -26 56 -93 80 -155 56z"/>
</g>
</svg>
